<svg xmlns="http://www.w3.org/2000/svg" width="20" height="20" viewBox="0 0 20 20">
  <g id="air-freight" transform="translate(0 -0.501)">
    <path id="Path_21" data-name="Path 21" d="M238.4,254.323a.391.391,0,1,0,.552,0A.39.39,0,0,0,238.4,254.323Zm0,0" transform="translate(-228.979 -243.797)" fill="#767388"/>
    <path id="Path_22" data-name="Path 22" d="M15.634,1.644A44.584,44.584,0,0,0,12.4,4.783l-1.425-.232.654-.654A1.172,1.172,0,1,0,9.975,2.24L8.127,4.087,1.667,3.035A1.318,1.318,0,0,0,.683,5.4L7.12,10.066,5.915,11.271a9.8,9.8,0,0,0-1.295,1.691l-3-.883A1.263,1.263,0,0,0,.544,14.328L3,16.032c-.428.946-.689,1.629-.7,1.661a.391.391,0,0,0,.5.5c.032-.012.715-.273,1.661-.7l1.7,2.461a1.263,1.263,0,0,0,2.249-1.075l-.883-3A9.808,9.808,0,0,0,9.23,14.586l1.205-1.205L15.1,19.818a1.318,1.318,0,0,0,2.368-.985l-1.052-6.46,1.847-1.847A1.172,1.172,0,1,0,16.6,8.869l-.654.654L15.718,8.1a44.6,44.6,0,0,0,3.138-3.228l0,0c1.2-1.561,1.487-3.138.7-3.924s-2.363-.5-3.925.7ZM10.527,2.792a.391.391,0,1,1,.553.552L10.028,4.4l-.95-.155ZM1.141,4.771a.537.537,0,0,1,.4-.964L11.723,5.464,7.68,9.506ZM.922,12.95a.481.481,0,0,1,.476-.122l2.808.826c-.287.5-.577,1.059-.866,1.66L.988,13.686a.481.481,0,0,1-.067-.736Zm6.629,6.629a.482.482,0,0,1-.736-.067L5.187,17.161c.6-.289,1.158-.579,1.66-.866L7.672,19.1a.481.481,0,0,1-.121.476ZM17.156,9.421a.391.391,0,1,1,.552.553l-1.449,1.449-.155-.95Zm-.462,9.537a.537.537,0,0,1-.964.4l-4.736-6.539,4.043-4.043ZM8.677,14.033a9.837,9.837,0,0,1-1.87,1.38A28.944,28.944,0,0,1,3.381,17.12a28.573,28.573,0,0,1,1.745-3.489,9.671,9.671,0,0,1,1.342-1.807C16.01,2.3,15.444,2.8,16.023,2.332a2.028,2.028,0,0,1,1.6.543,2.029,2.029,0,0,1,.544,1.6c-.464.58.021.021-9.491,9.556ZM18.837,3.451A2.578,2.578,0,0,0,17.05,1.664c.565-.287,1.517-.608,1.956-.169.346.347.26,1.109-.169,1.956Zm0,0" transform="translate(0 0)" fill="#767388"/>
    <path id="Path_23" data-name="Path 23" d="M267.8,197.755l-1.1,1.1a.391.391,0,1,0,.553.553l1.1-1.1a.391.391,0,0,0-.552-.552Zm0,0" transform="translate(-256.165 -189.438)" fill="#767388"/>
    <path id="Path_24" data-name="Path 24" d="M324.359,141.185l-1.105,1.105a.391.391,0,1,0,.553.553l1.105-1.105a.391.391,0,1,0-.552-.553Zm0,0" transform="translate(-310.517 -135.078)" fill="#767388"/>
  </g>
</svg>
