<svg xmlns="http://www.w3.org/2000/svg" width="71.063" height="72.245" viewBox="0 0 71.063 72.245">
  <path id="Icon_PLane" d="M66.391,14.586C69.306,10.615,71.055,6.5,71.063,3.55a4.088,4.088,0,0,0-.555-2.258,1.767,1.767,0,0,0-.323-.423,1.915,1.915,0,0,0-.371-.293A3.918,3.918,0,0,0,67.565,0c-2.89,0-6.94,1.779-10.85,4.75-3.158,2.4-6.315,5.785-10.687,10.467q-1.11,1.191-2.346,2.506l-8.467-2.579.026-.025a1.953,1.953,0,0,0-.007-2.718l-1.527-1.552a1.889,1.889,0,0,0-1.345-.564,1.857,1.857,0,0,0-1.342.564L28.73,13.166,27.519,12.8a1.95,1.95,0,0,0-.151-2.54L25.836,8.693a1.884,1.884,0,0,0-1.345-.564,1.838,1.838,0,0,0-1.334.564l-2.1,2.136L12.454,8.208a2.125,2.125,0,0,0-.615-.089,2.261,2.261,0,0,0-1.592.655l-3.03,3.079a1.828,1.828,0,0,0-.533,1.27,1.774,1.774,0,0,0,.923,1.583l18.1,10.279a3.173,3.173,0,0,1,.44.339l5.16,5.246C26.48,35.739,22.181,40.747,18.83,45.1c-.314.4-.609.8-.9,1.191l-14-1.3a1.878,1.878,0,0,0-.242-.016,2.566,2.566,0,0,0-1.735.735L.54,47.146A1.8,1.8,0,0,0,0,48.416a1.75,1.75,0,0,0,1.019,1.61l9.854,4.757a2.418,2.418,0,0,1,.369.272l.822.823a6.166,6.166,0,0,0-.393,1.926,2.549,2.549,0,0,0,.694,1.844l.035.031.01.008a2.469,2.469,0,0,0,1.8.69,5.96,5.96,0,0,0,1.886-.394l.833.847a2.324,2.324,0,0,1,.258.375L21.86,71.2a1.737,1.737,0,0,0,1.56,1.047h.01a1.74,1.74,0,0,0,1.249-.533l1.445-1.475a2.647,2.647,0,0,0,.694-1.76c0-.08,0-.141,0-.179L25.542,54.012c.383-.293.772-.6,1.171-.912,4.29-3.412,9.216-7.788,14.3-12.687l5.163,5.255a2.694,2.694,0,0,1,.336.45L56.584,64.484a1.76,1.76,0,0,0,1.3.943,1.741,1.741,0,0,0,1.515-.519l3.054-3.1a2.368,2.368,0,0,0,.623-1.616,2.273,2.273,0,0,0-.082-.6l-2.579-8.748,2.1-2.136a1.953,1.953,0,0,0,0-2.72l-1.538-1.563a1.876,1.876,0,0,0-2.5-.158l-.369-1.228L60.4,40.708a1.957,1.957,0,0,0,.555-1.366,1.918,1.918,0,0,0-.555-1.357l-1.527-1.552a1.873,1.873,0,0,0-2.688,0l-.017.014L53.632,27.84c.877-.847,1.707-1.657,2.5-2.419C60.72,20.985,64.036,17.788,66.391,14.586Z" transform="translate(0)" fill="#02a388"/>
</svg>
