<svg id="indent-all" xmlns="http://www.w3.org/2000/svg" width="24.392" height="20.327" viewBox="0 0 24.392 20.327">
  <g id="Group_632" data-name="Group 632" transform="translate(0 0)">
    <g id="Group_631" data-name="Group 631">
      <path id="Path_76" data-name="Path 76" d="M172.2,42.668H171.18a.509.509,0,0,0-.511.508v19.31a.509.509,0,0,0,.511.508H172.2a.51.51,0,0,0,.511-.508V43.176A.509.509,0,0,0,172.2,42.668Z" transform="translate(-162.543 -42.668)" fill="#fff"/>
      <path id="Path_77" data-name="Path 77" d="M6.775,153.636l-5.114-4.078A1.021,1.021,0,1,0,.384,151.15L4.5,154.432.384,157.714a1.021,1.021,0,0,0,1.277,1.592l5.114-4.078a1.017,1.017,0,0,0,0-1.592Z" transform="translate(0.001 -144.268)" fill="#fff"/>
      <path id="Path_78" data-name="Path 78" d="M267.763,298.668h-11.25a.511.511,0,0,0-.511.511V300.2a.511.511,0,0,0,.511.511h11.25a.511.511,0,0,0,.511-.511v-1.023A.511.511,0,0,0,267.763,298.668Z" transform="translate(-243.883 -286.481)" fill="#fff"/>
      <path id="Path_79" data-name="Path 79" d="M267.763,170.668h-11.25a.511.511,0,0,0-.511.511V172.2a.511.511,0,0,0,.511.511h11.25a.511.511,0,0,0,.511-.511v-1.023A.511.511,0,0,0,267.763,170.668Z" transform="translate(-243.883 -164.574)" fill="#fff"/>
      <path id="Path_80" data-name="Path 80" d="M267.763,42.668h-11.25a.511.511,0,0,0-.511.511V44.2a.511.511,0,0,0,.511.511h11.25a.511.511,0,0,0,.511-.511V43.179A.511.511,0,0,0,267.763,42.668Z" transform="translate(-243.883 -42.668)" fill="#fff"/>
      <path id="Path_81" data-name="Path 81" d="M267.763,426.668h-11.25a.511.511,0,0,0-.511.511V428.2a.511.511,0,0,0,.511.511h11.25a.511.511,0,0,0,.511-.511v-1.023A.511.511,0,0,0,267.763,426.668Z" transform="translate(-243.883 -408.387)" fill="#fff"/>
    </g>
  </g>
</svg>
