<svg id="Group_632" data-name="Group 632" xmlns="http://www.w3.org/2000/svg" width="14.4" height="12" viewBox="0 0 14.4 12">
  <g id="Group_631" data-name="Group 631">
    <path id="Path_76" data-name="Path 76" d="M171.575,42.668h-.6a.3.3,0,0,0-.3.3v11.4a.3.3,0,0,0,.3.3h.6a.3.3,0,0,0,.3-.3v-11.4A.3.3,0,0,0,171.575,42.668Z" transform="translate(-165.872 -42.668)" fill="#fff"/>
    <path id="Path_77" data-name="Path 77" d="M4,151.873.98,149.466a.6.6,0,1,0-.754.94l2.43,1.938-2.43,1.938a.6.6,0,0,0,.754.94L4,152.813a.6.6,0,0,0,0-.94Z" transform="translate(0.001 -146.343)" fill="#fff"/>
    <path id="Path_78" data-name="Path 78" d="M262.945,298.668H256.3a.3.3,0,0,0-.3.3v.6a.3.3,0,0,0,.3.3h6.642a.3.3,0,0,0,.3-.3v-.6A.3.3,0,0,0,262.945,298.668Z" transform="translate(-248.847 -291.473)" fill="#fff"/>
    <path id="Path_79" data-name="Path 79" d="M262.945,170.668H256.3a.3.3,0,0,0-.3.3v.6a.3.3,0,0,0,.3.3h6.642a.3.3,0,0,0,.3-.3v-.6A.3.3,0,0,0,262.945,170.668Z" transform="translate(-248.847 -167.071)" fill="#fff"/>
    <path id="Path_80" data-name="Path 80" d="M262.945,42.668H256.3a.3.3,0,0,0-.3.3v.6a.3.3,0,0,0,.3.3h6.642a.3.3,0,0,0,.3-.3v-.6A.3.3,0,0,0,262.945,42.668Z" transform="translate(-248.847 -42.668)" fill="#fff"/>
    <path id="Path_81" data-name="Path 81" d="M262.945,426.668H256.3a.3.3,0,0,0-.3.3v.6a.3.3,0,0,0,.3.3h6.642a.3.3,0,0,0,.3-.3v-.6A.3.3,0,0,0,262.945,426.668Z" transform="translate(-248.847 -415.876)" fill="#fff"/>
  </g>
</svg>
