<svg xmlns="http://www.w3.org/2000/svg" width="10" height="12" viewBox="0 0 10 12">
  <path id="Path_68" data-name="Path 68" d="M37,0c-2.763,0-5,.316-5,2.526V8.842a1.889,1.889,0,0,0,.625,1.4v1.124A.63.63,0,0,0,33.25,12h.625a.628.628,0,0,0,.625-.632v-.632h5v.632a.628.628,0,0,0,.625.632h.625a.63.63,0,0,0,.625-.632V10.244A1.889,1.889,0,0,0,42,8.842V2.526C42,.316,39.763,0,37,0ZM34.188,9.474a.947.947,0,1,1,.938-.947A.941.941,0,0,1,34.188,9.474Zm5.625,0a.947.947,0,1,1,.938-.947A.941.941,0,0,1,39.813,9.474Zm.938-3.789h-7.5V2.526h7.5Z" transform="translate(-32 0)" fill="#02a388"/>
</svg>
