<svg xmlns="http://www.w3.org/2000/svg" width="88.113" height="79.525" viewBox="0 0 88.113 79.525">
  <path id="Path_259" data-name="Path 259" d="M83.839,18.945a4.26,4.26,0,0,0-4.274,4.26h0v5.576a4.26,4.26,0,0,0,1.022,2.741l-3.828,4.67V7.411A7.389,7.389,0,0,0,69.362,0h-50.6a7.4,7.4,0,0,0-7.382,7.411v28.7L7.569,31.486a4.267,4.267,0,0,0,.971-2.705V23.212a4.274,4.274,0,0,0-8.541,0v5.569A4.26,4.26,0,0,0,5.821,32.76l5.555,6.756V61.821A7.375,7.375,0,0,0,18.2,69.175v4.72a5.432,5.432,0,1,0,10.865,0V69.2H59.231v4.691a5.432,5.432,0,1,0,10.858.4,3.6,3.6,0,0,0,0-.4V69.168a7.375,7.375,0,0,0,6.648-7.346V39.574l5.6-6.821a4.159,4.159,0,0,0,1.5.281,4.274,4.274,0,0,0,4.274-4.252h0V23.212a4.26,4.26,0,0,0-4.267-4.267ZM29.436,1.763H59.051v5.85H29.436Zm-6.756,54.41A4.922,4.922,0,1,1,27.6,51.251h0a4.922,4.922,0,0,1-4.922,4.922ZM53.173,66.2H34.911V61.929H53.2ZM66.03,56.173a4.922,4.922,0,1,1,4.922-4.922h0a4.914,4.914,0,0,1-4.893,4.922Zm6.476-14.16a2.921,2.921,0,0,1-2.921,2.921H18.708a2.936,2.936,0,0,1-2.928-2.921V13.232a2.936,2.936,0,0,1,2.928-2.921H69.592a2.921,2.921,0,0,1,2.921,2.921Z" transform="translate(0 0)" fill="#02a388"/>
</svg>
