<svg xmlns="http://www.w3.org/2000/svg" xmlns:xlink="http://www.w3.org/1999/xlink" width="13.75" height="14.375" viewBox="0 0 13.75 14.375">
  <defs>
    <clipPath id="clip-path">
      <path id="Icons_Calendar" data-name="Icons/Calendar" d="M12.5,14.375H1.25A1.252,1.252,0,0,1,0,13.125V2.5A1.252,1.252,0,0,1,1.25,1.25h.938a.313.313,0,0,1,.312.312v.884a1.284,1.284,0,0,0,1.127,1.3c.041,0,.083.006.124.006A1.251,1.251,0,0,0,5,2.5V1.562a.313.313,0,0,1,.312-.312H8.438a.313.313,0,0,1,.312.312v.884a1.284,1.284,0,0,0,1.128,1.3c.041,0,.082.006.123.006A1.25,1.25,0,0,0,11.25,2.5V1.562a.313.313,0,0,1,.312-.312H12.5A1.252,1.252,0,0,1,13.75,2.5V13.125A1.252,1.252,0,0,1,12.5,14.375ZM1.562,6.25a.313.313,0,0,0-.312.313v6.25a.313.313,0,0,0,.312.312H12.188a.313.313,0,0,0,.312-.312V6.563a.315.315,0,0,0-.092-.221.31.31,0,0,0-.22-.092ZM10,3.125A.625.625,0,0,1,9.375,2.5V.625a.625.625,0,0,1,1.25,0V2.5A.626.626,0,0,1,10,3.125Zm-6.25,0A.626.626,0,0,1,3.125,2.5V.625a.625.625,0,0,1,1.25,0V2.5A.625.625,0,0,1,3.75,3.125Z" fill="none"/>
    </clipPath>
  </defs>
  <path id="Icons_Calendar-2" data-name="Icons/Calendar" d="M12.5,14.375H1.25A1.252,1.252,0,0,1,0,13.125V2.5A1.252,1.252,0,0,1,1.25,1.25h.938a.313.313,0,0,1,.312.312v.884a1.284,1.284,0,0,0,1.127,1.3c.041,0,.083.006.124.006A1.251,1.251,0,0,0,5,2.5V1.562a.313.313,0,0,1,.312-.312H8.438a.313.313,0,0,1,.312.312v.884a1.284,1.284,0,0,0,1.128,1.3c.041,0,.082.006.123.006A1.25,1.25,0,0,0,11.25,2.5V1.562a.313.313,0,0,1,.312-.312H12.5A1.252,1.252,0,0,1,13.75,2.5V13.125A1.252,1.252,0,0,1,12.5,14.375ZM1.562,6.25a.313.313,0,0,0-.312.313v6.25a.313.313,0,0,0,.312.312H12.188a.313.313,0,0,0,.312-.312V6.563a.315.315,0,0,0-.092-.221.31.31,0,0,0-.22-.092ZM10,3.125A.625.625,0,0,1,9.375,2.5V.625a.625.625,0,0,1,1.25,0V2.5A.626.626,0,0,1,10,3.125Zm-6.25,0A.626.626,0,0,1,3.125,2.5V.625a.625.625,0,0,1,1.25,0V2.5A.625.625,0,0,1,3.75,3.125Z" fill="none"/>
  <g clip-path="url(#clip-path)">
    <g id="_color" data-name="🎨 color" transform="translate(-5.128 -4.507)">
      <rect id="Rectangle_2" data-name="Rectangle 2" width="24" height="24" fill="#b4bfd1"/>
    </g>
  </g>
</svg>
