<svg id="calendar" xmlns="http://www.w3.org/2000/svg" width="14" height="14" viewBox="0 0 14 14">
  <g id="Group_639" data-name="Group 639">
    <g id="Group_638" data-name="Group 638">
      <path id="Path_82" data-name="Path 82" d="M12.359,1.094H11.7V0H10.609V1.094H3.391V0H2.3V1.094H1.641A1.642,1.642,0,0,0,0,2.734v9.625A1.642,1.642,0,0,0,1.641,14H12.359A1.642,1.642,0,0,0,14,12.359V2.734A1.642,1.642,0,0,0,12.359,1.094Zm.547,11.266a.547.547,0,0,1-.547.547H1.641a.547.547,0,0,1-.547-.547V5.141H12.906Zm0-8.312H1.094V2.734a.547.547,0,0,1,.547-.547H2.3V3.281H3.391V2.188h7.219V3.281H11.7V2.188h.656a.547.547,0,0,1,.547.547Z" fill="#767388"/>
    </g>
  </g>
  <g id="Group_641" data-name="Group 641" transform="translate(2.341 6)">
    <g id="Group_640" data-name="Group 640">
      <rect id="Rectangle_70" data-name="Rectangle 70" width="2" height="2" fill="#767388"/>
    </g>
  </g>
  <g id="Group_643" data-name="Group 643" transform="translate(3.842 6)">
    <g id="Group_642" data-name="Group 642">
      <rect id="Rectangle_71" data-name="Rectangle 71" width="2" height="2" fill="#767388"/>
    </g>
  </g>
  <g id="Group_645" data-name="Group 645" transform="translate(6 6)">
    <g id="Group_644" data-name="Group 644">
      <rect id="Rectangle_72" data-name="Rectangle 72" width="2" height="2" fill="#767388"/>
    </g>
  </g>
  <g id="Group_647" data-name="Group 647" transform="translate(8.158 6)">
    <g id="Group_646" data-name="Group 646">
      <rect id="Rectangle_73" data-name="Rectangle 73" width="2" height="2" fill="#767388"/>
    </g>
  </g>
  <g id="Group_649" data-name="Group 649" transform="translate(9.659 6)">
    <g id="Group_648" data-name="Group 648">
      <rect id="Rectangle_74" data-name="Rectangle 74" width="2" height="2" fill="#767388"/>
    </g>
  </g>
  <g id="Group_651" data-name="Group 651" transform="translate(2.341 8.338)">
    <g id="Group_650" data-name="Group 650">
      <rect id="Rectangle_75" data-name="Rectangle 75" width="2" height="1" fill="#767388"/>
    </g>
  </g>
  <g id="Group_653" data-name="Group 653" transform="translate(3.842 8.338)">
    <g id="Group_652" data-name="Group 652">
      <rect id="Rectangle_76" data-name="Rectangle 76" width="2" height="1" fill="#767388"/>
    </g>
  </g>
  <g id="Group_655" data-name="Group 655" transform="translate(6 8.338)">
    <g id="Group_654" data-name="Group 654">
      <rect id="Rectangle_77" data-name="Rectangle 77" width="2" height="1" fill="#767388"/>
    </g>
  </g>
  <g id="Group_657" data-name="Group 657" transform="translate(8.158 8.338)">
    <g id="Group_656" data-name="Group 656">
      <rect id="Rectangle_78" data-name="Rectangle 78" width="2" height="1" fill="#767388"/>
    </g>
  </g>
  <g id="Group_659" data-name="Group 659" transform="translate(2.341 10.544)">
    <g id="Group_658" data-name="Group 658">
      <rect id="Rectangle_79" data-name="Rectangle 79" width="2" height="1" fill="#767388"/>
    </g>
  </g>
  <g id="Group_661" data-name="Group 661" transform="translate(3.842 10.544)">
    <g id="Group_660" data-name="Group 660">
      <rect id="Rectangle_80" data-name="Rectangle 80" width="2" height="1" fill="#767388"/>
    </g>
  </g>
  <g id="Group_663" data-name="Group 663" transform="translate(6 10.544)">
    <g id="Group_662" data-name="Group 662">
      <rect id="Rectangle_81" data-name="Rectangle 81" width="2" height="1" fill="#767388"/>
    </g>
  </g>
  <g id="Group_665" data-name="Group 665" transform="translate(8.158 10.544)">
    <g id="Group_664" data-name="Group 664">
      <rect id="Rectangle_82" data-name="Rectangle 82" width="2" height="1" fill="#767388"/>
    </g>
  </g>
  <g id="Group_667" data-name="Group 667" transform="translate(9.659 8.338)">
    <g id="Group_666" data-name="Group 666">
      <rect id="Rectangle_83" data-name="Rectangle 83" width="2" height="1" fill="#767388"/>
    </g>
  </g>
</svg>
