<svg version="1.1" id="Layer_1" xmlns="http://www.w3.org/2000/svg" xmlns:xlink="http://www.w3.org/1999/xlink" x="0px" y="0px"
	 viewBox="-18 -20 160 149" style="enable-background:new 0 0 122.5 110.5;" xml:space="preserve">
<g>
	<path class="st0" d="M120.3,27.8c-1.3-1.3-3-2-4.8-2h0c0,0,0,0,0,0c-1.8,0-3.5,0.7-4.8,2c-1.3,1.3-2,3-2,4.8v7.6
		c0,1.3,0.4,2.6,1.1,3.7l-3,3.7V11.1C106.8,5,101.9,0,95.8,0h-69c-6.1,0-11.1,5-11,11.1v36.4l-3-3.6c0.7-1.1,1.1-2.4,1.1-3.7l0-7.6
		c-0.1-1.8-0.9-3.5-2.2-4.7c-1.3-1.2-3.1-1.9-4.9-1.8c-3.5,0.1-6.4,3-6.5,6.6v7.6c0,1.8,0.7,3.5,2,4.8c1.3,1.3,3,2,4.8,2
		c0.6,0,1.2-0.1,1.8-0.2l6.9,8.4v30.1c0,5.4,4,10.1,9.3,10.9v5.6c0,4.6,3.8,8.4,8.4,8.4c4.6,0,8.4-3.8,8.4-8.4v-5.4h39.2l0,5.4
		c-0.1,2.2,0.7,4.4,2.2,6c1.5,1.6,3.6,2.6,5.8,2.7c0.1,0,0.2,0,0.3,0c2.1,0,4.1-0.8,5.7-2.2c1.6-1.5,2.6-3.6,2.7-5.8
		c0-0.2,0-0.4,0-0.6v-5.6c5.2-0.9,9.1-5.5,9.1-10.9v-30l7-8.5c0.6,0.1,1.1,0.2,1.7,0.2c0,0,0,0,0,0c3.7,0,6.8-3,6.8-6.8v-7.6
		C122.3,30.8,121.6,29.1,120.3,27.8z M120.3,40.2c0,2.7-2.2,4.8-4.9,4.8c0,0,0,0,0,0c-0.6,0-1.2-0.1-1.7-0.3l-0.7-0.3l-8.3,10.1
		v30.7c0,4.7-3.5,8.6-8.2,9l-0.9,0.1l0,7.4c0,0.1,0,0.3,0,0.5c-0.1,1.7-0.8,3.3-2,4.5c-1.3,1.2-2.9,1.8-4.6,1.7
		c-1.7-0.1-3.3-0.8-4.5-2c-1.2-1.3-1.8-2.9-1.7-4.6v-7.4H39.8v7.4c0,3.5-2.9,6.4-6.4,6.4s-6.4-2.9-6.4-6.4v-7.3L26,94.4
		c-4.7-0.3-8.4-4.3-8.4-9.1V54.5l-8.3-10l-0.7,0.3c-0.6,0.2-1.2,0.4-1.8,0.3c-1.3,0-2.5-0.5-3.4-1.4c-0.9-0.9-1.4-2.1-1.4-3.4l0-7.6
		c0.1-2.5,2.1-4.5,4.6-4.6c2.7-0.1,4.9,2,5,4.6v7.6c0,1.1-0.4,2.2-1.1,3.1l-0.5,0.6l7.4,9V11.1c0-5,4.1-9.1,9.1-9.1h69.1
		c5,0,9.1,4.1,9.1,9.1v42l7.5-9.1l-0.5-0.6c-0.7-0.9-1.2-2-1.2-3.1v-7.6c0-1.3,0.5-2.5,1.4-3.4c0.9-0.9,2.1-1.4,3.4-1.4c0,0,0,0,0,0
		h0c1.3,0,2.5,0.5,3.4,1.4c0.9,0.9,1.4,2.1,1.4,3.4V40.2z"/>
	<path class="st0" d="M81.8,2.9H41.2v9.6h40.5V2.9z M79.8,10.5H43.2V4.9h36.5V10.5z"/>
	<path class="st0" d="M31.5,65.4c-4.3,0-7.8,3.5-7.8,7.8s3.5,7.8,7.8,7.8s7.8-3.5,7.8-7.8S35.8,65.4,31.5,65.4z M31.5,79
		c-3.2,0-5.8-2.6-5.8-5.8s2.6-5.8,5.8-5.8s5.8,2.6,5.8,5.8S34.7,79,31.5,79z"/>
	<path class="st0" d="M47.5,93h27.4l0.1-7.9H47.5V93z M49.5,87h23.4l0,3.9H49.5V87z"/>
	<path class="st0" d="M91.8,65.4c-4.3,0-7.8,3.5-7.8,7.8s3.5,7.8,7.8,7.8h0h0c4.3,0,7.8-3.5,7.8-7.8C99.6,68.9,96.1,65.4,91.8,65.4z
		 M91.8,79L91.8,79c-3.3,0-5.9-2.6-5.9-5.8s2.6-5.8,5.8-5.8c3.2,0,5.8,2.6,5.8,5.8C97.6,76.4,95,79,91.8,79z"/>
	<path class="st0" d="M96.7,13.3H26c-2.8,0-5.1,2.3-5.1,5.1v40c0,2.8,2.3,5,5.1,5.1h70.7c2.8,0,5.1-2.3,5.1-5.1l0-40
		C101.8,15.6,99.5,13.3,96.7,13.3z M99.8,58.4c0,1.7-1.4,3.1-3.1,3.1H26c-1.7,0-3.1-1.4-3.1-3.1v-40c0-1.7,1.4-3.1,3.1-3.1h70.7
		c1.7,0,3.1,1.4,3.1,3.1L99.8,58.4z"/>
</g>
</svg>
