<svg xmlns="http://www.w3.org/2000/svg" width="14.063" height="20" viewBox="0 0 14.063 20">
  <g id="placeholder" transform="translate(-76)">
    <g id="Group_106" data-name="Group 106" transform="translate(76)">
      <g id="Group_105" data-name="Group 105">
        <path id="Path_33" data-name="Path 33" d="M83.031,0A7.033,7.033,0,0,0,77.05,10.729l5.581,8.994a.586.586,0,0,0,.5.277h0a.586.586,0,0,0,.5-.285l5.439-9.082A7.033,7.033,0,0,0,83.031,0Zm5.034,10.032L83.12,18.289l-5.074-8.177a5.863,5.863,0,1,1,10.019-.079Z" transform="translate(-76)" fill="#767388"/>
      </g>
    </g>
    <g id="Group_108" data-name="Group 108" transform="translate(79.516 3.516)">
      <g id="Group_107" data-name="Group 107">
        <path id="Path_34" data-name="Path 34" d="M169.516,90a3.516,3.516,0,1,0,3.516,3.516A3.52,3.52,0,0,0,169.516,90Zm0,5.867a2.352,2.352,0,1,1,2.348-2.352A2.353,2.353,0,0,1,169.516,95.867Z" transform="translate(-166 -90)" fill="#767388"/>
      </g>
    </g>
  </g>
</svg>
