<svg id="dollar" xmlns="http://www.w3.org/2000/svg" width="30" height="30" viewBox="0 0 30 30">
  <path id="Path_44" data-name="Path 44" d="M15,30A15,15,0,0,1,4.393,4.393,15,15,0,0,1,25.607,25.607,14.9,14.9,0,0,1,15,30ZM15,1.875A13.125,13.125,0,1,0,28.125,15,13.14,13.14,0,0,0,15,1.875Z" fill="#02a388"/>
  <path id="Path_45" data-name="Path 45" d="M188.219,104.438a2.344,2.344,0,1,1,2.344-2.344.938.938,0,1,0,1.875,0,4.225,4.225,0,0,0-3.281-4.112V96.938a.938.938,0,0,0-1.875,0v1.044a4.218,4.218,0,0,0,.938,8.331,2.344,2.344,0,1,1-2.344,2.344.938.938,0,0,0-1.875,0,4.225,4.225,0,0,0,3.281,4.112v1.044a.938.938,0,1,0,1.875,0v-1.044a4.218,4.218,0,0,0-.937-8.331Z" transform="translate(-173.219 -90.375)" fill="#02a388"/>
</svg>
