<svg xmlns="http://www.w3.org/2000/svg" width="19.739" height="21.055" viewBox="0 0 19.739 21.055">
  <g id="download" transform="translate(0)">
    <g id="Group_122" data-name="Group 122" transform="translate(4.606)">
      <g id="Group_121" data-name="Group 121" transform="translate(0)">
        <path id="Path_35" data-name="Path 35" d="M21.468,9.6a.656.656,0,0,0-.6-.386H18.237V.658A.658.658,0,0,0,17.58,0H14.948a.658.658,0,0,0-.658.658V9.211H11.658a.658.658,0,0,0-.495,1.091l4.606,5.264a.656.656,0,0,0,.99,0L21.364,10.3A.656.656,0,0,0,21.468,9.6Z" transform="translate(-11)" fill="#02a388"/>
      </g>
    </g>
    <g id="Group_124" data-name="Group 124" transform="translate(0 14.475)">
      <g id="Group_123" data-name="Group 123" transform="translate(0)">
        <path id="Path_36" data-name="Path 36" d="M18.482,30.25V34.2H4.007V30.25H1.375v5.264A1.316,1.316,0,0,0,2.691,36.83H19.8a1.315,1.315,0,0,0,1.316-1.316V30.25Z" transform="translate(-1.375 -30.25)" fill="#02a388"/>
      </g>
    </g>
  </g>
</svg>
