<svg id="error" xmlns="http://www.w3.org/2000/svg" width="30.069" height="30.069" viewBox="0 0 30.069 30.069">
  <g id="Group_482" data-name="Group 482">
    <g id="Group_481" data-name="Group 481">
      <path id="Path_50" data-name="Path 50" d="M15.035,0A15.035,15.035,0,1,0,30.069,15.035,15.026,15.026,0,0,0,15.035,0Zm0,27.72A12.686,12.686,0,1,1,27.72,15.035,12.678,12.678,0,0,1,15.035,27.72Z" fill="#c25a5a"/>
    </g>
  </g>
  <g id="Group_484" data-name="Group 484" transform="translate(9.547 9.547)">
    <g id="Group_483" data-name="Group 483">
      <path id="Path_51" data-name="Path 51" d="M173.187,171.526l-3.483-3.483,3.483-3.483a1.175,1.175,0,1,0-1.661-1.661l-3.483,3.483L164.56,162.9a1.175,1.175,0,1,0-1.661,1.661l3.483,3.483-3.483,3.483a1.175,1.175,0,1,0,1.661,1.661l3.483-3.483,3.483,3.483a1.175,1.175,0,1,0,1.661-1.661Z" transform="translate(-162.555 -162.556)" fill="#c25a5a"/>
    </g>
  </g>
</svg>
