<svg xmlns="http://www.w3.org/2000/svg" width="9.473" height="12" viewBox="0 0 9.473 12">
  <path id="Path_69" data-name="Path 69" d="M70.769,11.239l-1.759-3.2a1.042,1.042,0,0,0,.867-1.024V2.284A2.286,2.286,0,0,0,67.592,0H64.6a2.314,2.314,0,0,0-2.311,2.311v4.7a1.022,1.022,0,0,0,.867,1.024l-1.733,3.2a.517.517,0,0,0,.21.709.39.39,0,0,0,.236.053.508.508,0,0,0,.446-.263l.158-.263h7.247l.158.263a.487.487,0,0,0,.446.263.766.766,0,0,0,.236-.053A.517.517,0,0,0,70.769,11.239ZM68.3,8.875H63.889l.446-.814h3.519Zm-.079-1.759a.761.761,0,1,1,.761-.762A.779.779,0,0,1,68.222,7.116ZM63.207,2.6a1.463,1.463,0,0,1,1.444-1.47h2.862a1.485,1.485,0,0,1,1.47,1.47V3.86a.5.5,0,0,1-.525.5H63.732a.5.5,0,0,1-.5-.5L63.207,2.6Zm.761,2.967a.761.761,0,1,1-.761.762A.762.762,0,0,1,63.968,5.567Zm-1.077,5.12.578-1.024h5.252l.578,1.024Z" transform="translate(-61.359)" fill="#02a388"/>
</svg>
