<svg xmlns="http://www.w3.org/2000/svg" width="24.912" height="5.904" viewBox="0 0 24.912 5.904">
  <path id="Path_53" data-name="Path 53" d="M-6.264-2.7a2.946,2.946,0,0,0-3.06-2.952A2.966,2.966,0,0,0-12.456-2.7,2.966,2.966,0,0,0-9.324.252,2.946,2.946,0,0,0-6.264-2.7Zm9.36,0A2.946,2.946,0,0,0,.036-5.652,2.966,2.966,0,0,0-3.1-2.7,2.966,2.966,0,0,0,.036.252,2.946,2.946,0,0,0,3.1-2.7Zm9.36,0A2.946,2.946,0,0,0,9.4-5.652,2.966,2.966,0,0,0,6.264-2.7,2.966,2.966,0,0,0,9.4.252,2.946,2.946,0,0,0,12.456-2.7Z" transform="translate(12.456 5.652)" fill="#ebebee"/>
</svg>
