<svg id="placeholder" xmlns="http://www.w3.org/2000/svg" width="17" height="14.373" viewBox="0 0 17 14.373">
  <g id="Group_669" data-name="Group 669">
    <g id="Group_668" data-name="Group 668">
      <path id="Path_83" data-name="Path 83" d="M80.922,0a4.923,4.923,0,0,0-4.187,7.51l3.907,6.3A.41.41,0,0,0,80.99,14h0a.41.41,0,0,0,.349-.2L85.15,7.444A4.923,4.923,0,0,0,80.922,0Zm3.524,7.022L80.984,12.8,77.432,7.078a4.1,4.1,0,1,1,7.014-.055Z" transform="translate(-76)" fill="#757287"/>
    </g>
  </g>
  <g id="Group_671" data-name="Group 671" transform="translate(2.461 2.461)">
    <g id="Group_670" data-name="Group 670">
      <path id="Path_84" data-name="Path 84" d="M168.461,90a2.461,2.461,0,1,0,2.461,2.461A2.464,2.464,0,0,0,168.461,90Zm0,4.107a1.646,1.646,0,1,1,1.643-1.646A1.647,1.647,0,0,1,168.461,94.107Z" transform="translate(-166 -90)" fill="#757287"/>
    </g>
  </g>
  <path id="Polygon_4" data-name="Polygon 4" d="M4,0,8,6H0Z" transform="translate(9 8.373)" fill="#d15a5a"/>
</svg>
