<svg xmlns="http://www.w3.org/2000/svg" width="32" height="39.305" viewBox="0 0 32 39.305">
  <g id="pdf-file" transform="translate(-44.806)">
    <path id="Path_142" data-name="Path 142" d="M120.448,298.454c0-.653-.453-1.042-1.252-1.042a2.772,2.772,0,0,0-.663.063v2.094a2.512,2.512,0,0,0,.537.041C119.922,299.61,120.448,299.18,120.448,298.454Z" transform="translate(-67.717 -273.166)" fill="#757287"/>
    <path id="Path_143" data-name="Path 143" d="M194.53,297.681a3.3,3.3,0,0,0-.726.063v4.638a2.9,2.9,0,0,0,.558.032,2.2,2.2,0,0,0,2.4-2.482A2.034,2.034,0,0,0,194.53,297.681Z" transform="translate(-136.851 -273.413)" fill="#757287"/>
    <path id="Path_144" data-name="Path 144" d="M66.87,0H51.084A4.189,4.189,0,0,0,46.9,4.183V19.653h-.409a1.686,1.686,0,0,0-1.686,1.686V31.562a1.685,1.685,0,0,0,1.686,1.686H46.9v1.875a4.188,4.188,0,0,0,4.183,4.183h21.54a4.188,4.188,0,0,0,4.182-4.183V9.9ZM49.228,23.183a13.214,13.214,0,0,1,2.167-.146,3.4,3.4,0,0,1,2.167.568,2.072,2.072,0,0,1,.758,1.641,2.266,2.266,0,0,1-.652,1.683,3.288,3.288,0,0,1-2.3.747,4.152,4.152,0,0,1-.547-.031v2.535H49.228Zm23.4,13.56H51.084a1.623,1.623,0,0,1-1.62-1.621V33.247h20.08a1.685,1.685,0,0,0,1.686-1.686V21.338a1.685,1.685,0,0,0-1.686-1.686H49.463V4.183a1.622,1.622,0,0,1,1.62-1.619l14.828-.015V8.03a2.9,2.9,0,0,0,2.9,2.9l5.369-.015.06,24.206A1.622,1.622,0,0,1,72.624,36.743Zm-17.28-6.6V23.183a14.439,14.439,0,0,1,2.167-.146,4.565,4.565,0,0,1,2.9.757,3.137,3.137,0,0,1,1.2,2.672,3.594,3.594,0,0,1-1.178,2.872,5.089,5.089,0,0,1-3.271.915A13.878,13.878,0,0,1,55.344,30.147Zm11.481-4.123v1.3H64.278v2.851H62.669V23.09H67V24.4H64.278v1.62Z" transform="translate(0)" fill="#757287"/>
  </g>
</svg>
