<svg xmlns="http://www.w3.org/2000/svg" width="83.828" height="85.222" viewBox="0 0 83.828 85.222">
  <path id="Icon_PLane" d="M78.316,17.206c3.438-4.684,5.5-9.544,5.511-13.018a4.822,4.822,0,0,0-.655-2.663,2.085,2.085,0,0,0-.381-.5,2.259,2.259,0,0,0-.437-.346A4.622,4.622,0,0,0,79.7,0c-3.409,0-8.186,2.1-12.8,5.6-3.725,2.83-7.45,6.824-12.607,12.347q-1.31,1.4-2.767,2.956l-9.987-3.043.031-.03a2.3,2.3,0,0,0-.008-3.206l-1.8-1.831a2.228,2.228,0,0,0-1.586-.666,2.191,2.191,0,0,0-1.583.666l-2.7,2.735L32.462,15.1a2.3,2.3,0,0,0-.178-3l-1.806-1.848a2.223,2.223,0,0,0-1.587-.666,2.168,2.168,0,0,0-1.573.666l-2.476,2.52L14.691,9.682a2.507,2.507,0,0,0-.725-.1,2.667,2.667,0,0,0-1.878.772L8.513,13.982a2.156,2.156,0,0,0-.629,1.5,2.093,2.093,0,0,0,1.089,1.868L30.325,29.473a3.743,3.743,0,0,1,.519.4l6.087,6.189c-5.694,6.1-10.767,12-14.719,17.144-.37.478-.719.944-1.063,1.4L4.633,53.08a2.216,2.216,0,0,0-.285-.018,3.027,3.027,0,0,0-2.047.867L.637,55.614A2.122,2.122,0,0,0,0,57.112a2.064,2.064,0,0,0,1.2,1.9l11.625,5.611a2.852,2.852,0,0,1,.436.321l.969.97a7.274,7.274,0,0,0-.463,2.272,3.007,3.007,0,0,0,.819,2.175l.041.037.011.01a2.912,2.912,0,0,0,2.128.814,7.031,7.031,0,0,0,2.225-.464l.982,1a2.741,2.741,0,0,1,.3.443l5.508,11.788a2.049,2.049,0,0,0,1.84,1.235h.011a2.053,2.053,0,0,0,1.474-.629l1.7-1.739a3.122,3.122,0,0,0,.819-2.076c0-.095,0-.166,0-.211l-1.5-16.853c.452-.346.91-.7,1.382-1.075,5.061-4.025,10.871-9.186,16.864-14.965l6.091,6.2a3.178,3.178,0,0,1,.4.531L66.747,76.067a2.076,2.076,0,0,0,1.536,1.112,2.054,2.054,0,0,0,1.787-.613l3.6-3.654a2.793,2.793,0,0,0,.735-1.906,2.681,2.681,0,0,0-.1-.712l-3.042-10.32,2.476-2.52a2.3,2.3,0,0,0,0-3.209L71.931,52.4a2.213,2.213,0,0,0-2.947-.186l-.436-1.448,2.7-2.746a2.308,2.308,0,0,0,.655-1.611,2.263,2.263,0,0,0-.655-1.6l-1.8-1.831a2.209,2.209,0,0,0-3.171,0l-.02.017L63.265,32.84c1.035-1,2.014-1.954,2.947-2.853C71.626,24.754,75.538,20.983,78.316,17.206Z" transform="translate(0)" fill="#02a388"/>
</svg>
