<svg xmlns="http://www.w3.org/2000/svg" width="89" height="48" viewBox="0 0 89 48">
  <g id="Omio_Logo" transform="translate(0 0)">
    <path id="Path_256" data-name="Path 256" d="M104.521,35.4H99.16a.3.3,0,0,0-.3.3V53.906a.3.3,0,0,0,.3.3h5.361a.3.3,0,0,0,.3-.3V35.7a.3.3,0,0,0-.3-.3m12.655,13.9A4.216,4.216,0,0,1,112.82,44.8a4.376,4.376,0,1,1,8.748,0,4.246,4.246,0,0,1-4.393,4.493m0-14.384c-6.013,0-10.378,4.159-10.378,9.889s4.364,9.889,10.378,9.889c6.133,0,10.415-4.066,10.415-9.889s-4.28-9.889-10.415-9.889m-20.757,8.13c0-4.711-3.59-8.131-8.537-8.131a7.424,7.424,0,0,0-5.247,2.131.393.393,0,0,1-.577,0,7.361,7.361,0,0,0-5.274-2.127c-4.93,0-8.509,3.42-8.509,8.131V53.912a.3.3,0,0,0,.3.3h5.381a.3.3,0,0,0,.3-.3V43.285a2.571,2.571,0,1,1,5.123,0V53.912a.3.3,0,0,0,.3.3h5.387a.3.3,0,0,0,.3-.3V43.285a2.571,2.571,0,1,1,5.122,0V53.912a.3.3,0,0,0,.3.3h5.358a.3.3,0,0,0,.3-.3ZM56.2,49.3A4.245,4.245,0,0,1,51.813,44.8a4.375,4.375,0,1,1,8.747,0A4.216,4.216,0,0,1,56.2,49.3m0-14.384c-6.131,0-10.415,4.066-10.415,9.889S50.07,54.69,56.2,54.69c6.013,0,10.378-4.159,10.378-9.889S62.218,34.911,56.2,34.911" transform="translate(-39.031 -6.69)" fill="#132968"/>
    <path id="Path_257" data-name="Path 257" d="M4.431,0a4.28,4.28,0,0,1,4.3,3.939,4.342,4.342,0,0,1-3.962,4.68c-.131.012-.263.018-.393.018A4.353,4.353,0,0,1,.021,4.7a4.308,4.308,0,0,1,4-4.683A3.169,3.169,0,0,1,4.431,0" transform="translate(-0.004 23.068)" fill="#f96b6b"/>
    <text id="Powered_By" data-name="Powered By" transform="translate(0 16)" fill="#132968" font-size="15" font-family="Poppins-SemiBold, Poppins" font-weight="600"><tspan x="0" y="0">Powered By</tspan></text>
  </g>
</svg>
