<svg xmlns="http://www.w3.org/2000/svg" width="63.619" height="55.526" viewBox="0 0 63.619 55.526">
  <g id="Group_706" data-name="Group 706" transform="translate(15.677) rotate(25)">
    <path id="Path_156" data-name="Path 156" d="M8.941,3.858l1.267-2.233,2.675-.406L29.638,7.581,45.619.541,49.42,0l3.238,2.031v2.3l-1.619,2.3L47.8,9.206,35.692,14.418,28.23,34.928l-1.76.88L24.5,35.4l-.563-1.287,1.83-15.636L8.1,26.805,6.407,22.27l3.8-1.557L0,16.787l2.816-4.4,10.489,2.775,7.462-3.317Z" transform="translate(0.543 0.651)" fill="#fff"/>
    <path id="airplane" d="M6.171,22.05a.905.905,0,0,0-.444,1.185l2.036,4.37a.9.9,0,0,0,1.194.444l15.38-7.184L22.944,35.431a.905.905,0,0,0,.3.76,3.949,3.949,0,0,0,2.389.9,2.909,2.909,0,0,0,.715-.09c1.249-.326,2.217-1.438,2.877-3.339l6.052-17.922,11.987-5.591c3.528-1.646,5.347-4.985,4.126-7.59A4.58,4.58,0,0,0,47.85.094a8.386,8.386,0,0,0-4.94.76L29.077,7.341,14.2,1.524c-1.873-.705-3.356-.687-4.4.064A3.689,3.689,0,0,0,8.46,4.509a.905.905,0,0,0,.389.715l10.015,6.884-5.735,2.714L3.511,12.38a.905.905,0,0,0-1,.434L.11,17.129A.9.9,0,0,0,.58,18.4l7.12,2.94ZM10.314,4.057a1.548,1.548,0,0,1,.543-.977c.516-.371,1.457-.317,2.714.154L26.816,8.4l-6.044,2.823ZM2.172,17.12l1.574-2.8L13,16.622a.906.906,0,0,0,.6-.054L43.679,2.519A6.612,6.612,0,0,1,47.542,1.9,2.833,2.833,0,0,1,49.75,3.333c.759,1.629-.733,4.008-3.257,5.184L36.07,13.4l.633-1.873a.92.92,0,1,0-1.746-.579L27.512,33.106c-.443,1.258-1,2.009-1.61,2.171a1.531,1.531,0,0,1-1.1-.208l1.809-19A.909.909,0,0,0,24.8,15.9l-.28,2.9L8.993,26.04,7.718,23.326l2.551-1.194a.9.9,0,0,0,0-1.656Zm0,0" transform="translate(0 0)"/>
  </g>
</svg>
