<svg xmlns="http://www.w3.org/2000/svg" width="17.271" height="17.407" viewBox="0 0 17.271 17.407">
  <g id="settings" transform="translate(-2)">
    <g id="Group_791" data-name="Group 791" transform="translate(7.915 5.984)">
      <g id="Group_790" data-name="Group 790">
        <path id="Path_206" data-name="Path 206" d="M178.72,176a2.72,2.72,0,1,0,2.72,2.72A2.723,2.723,0,0,0,178.72,176Zm0,4.08a1.36,1.36,0,1,1,1.36-1.36A1.361,1.361,0,0,1,178.72,180.08Z" transform="translate(-176 -176)"/>
      </g>
    </g>
    <g id="Group_793" data-name="Group 793" transform="translate(2)">
      <g id="Group_792" data-name="Group 792" transform="translate(0)">
        <path id="Path_207" data-name="Path 207" d="M19,10.731,17.243,9.382a6.409,6.409,0,0,0,0-1.357L19,6.676a.68.68,0,0,0,.172-.885L17.471,2.9a.68.68,0,0,0-.835-.287l-2.089.823a6.645,6.645,0,0,0-1.221-.692L13.013.582A.68.68,0,0,0,12.34,0H8.93a.68.68,0,0,0-.673.582L7.943,2.746a6.647,6.647,0,0,0-1.221.692L4.634,2.615A.68.68,0,0,0,3.8,2.9L2.094,5.791a.68.68,0,0,0,.172.885L4.027,8.025a6.41,6.41,0,0,0,0,1.357L2.266,10.731a.68.68,0,0,0-.172.885L3.8,14.505a.68.68,0,0,0,.835.287l2.089-.823a6.647,6.647,0,0,0,1.221.692l.314,2.163a.68.68,0,0,0,.673.582h3.41a.68.68,0,0,0,.673-.582l.314-2.163a6.645,6.645,0,0,0,1.221-.692l2.089.823a.68.68,0,0,0,.835-.287l1.705-2.889A.68.68,0,0,0,19,10.731Zm-2.409,2.583-1.905-.75a.68.68,0,0,0-.678.1,5.3,5.3,0,0,1-1.534.867.68.68,0,0,0-.441.542l-.285,1.969H9.518l-.285-1.969a.68.68,0,0,0-.441-.542,5.3,5.3,0,0,1-1.534-.867.68.68,0,0,0-.678-.1l-1.905.75-1.1-1.871,1.6-1.223a.68.68,0,0,0,.257-.655,5.067,5.067,0,0,1,0-1.724.68.68,0,0,0-.257-.655l-1.6-1.223,1.1-1.871,1.905.75a.68.68,0,0,0,.678-.1,5.3,5.3,0,0,1,1.534-.867.68.68,0,0,0,.441-.542L9.518,1.36h2.233l.285,1.969a.68.68,0,0,0,.441.542,5.3,5.3,0,0,1,1.534.867.68.68,0,0,0,.678.1l1.905-.75,1.1,1.871L16.1,7.186a.68.68,0,0,0-.257.655,5.067,5.067,0,0,1,0,1.724.68.68,0,0,0,.257.655l1.6,1.223Z" transform="translate(-2)"/>
      </g>
    </g>
  </g>
</svg>
