<svg xmlns="http://www.w3.org/2000/svg" width="30.035" height="30.035" viewBox="0 0 30.035 30.035">
  <g id="accept-circular-button-outline" transform="translate(0 -0.001)">
    <g id="Group_479" data-name="Group 479" transform="translate(0 0.001)">
      <g id="Group_477" data-name="Group 477">
        <path id="Path_46" data-name="Path 46" d="M4.891,26.094a14.952,14.952,0,1,0-3.212-4.765A14.94,14.94,0,0,0,4.891,26.094Zm10.6-23.4a12.8,12.8,0,1,1-12.8,12.8A12.8,12.8,0,0,1,15.492,2.69Z" transform="translate(-0.474 -0.475)" fill="#02a388"/>
        <path id="Path_47" data-name="Path 47" d="M15.017,30.036A15.021,15.021,0,0,1,9.171,1.182,15.021,15.021,0,0,1,20.863,28.855,14.926,14.926,0,0,1,15.017,30.036Zm0-29.984A14.97,14.97,0,0,0,9.191,28.808,14.97,14.97,0,0,0,20.844,1.229,14.873,14.873,0,0,0,15.017.052Zm0,27.795a12.829,12.829,0,0,1-9.071-21.9A12.829,12.829,0,1,1,24.089,24.09,12.745,12.745,0,0,1,15.017,27.847Zm0-25.606A12.778,12.778,0,0,0,5.982,24.053a12.778,12.778,0,1,0,18.07-18.07A12.694,12.694,0,0,0,15.017,2.241Z" transform="translate(0 -0.001)" fill="#02a388"/>
      </g>
      <g id="Group_478" data-name="Group 478" transform="translate(7.074 9.213)">
        <path id="Path_48" data-name="Path 48" d="M143.565,192.08a1.094,1.094,0,0,0,1.548,0l9.369-9.369a1.094,1.094,0,1,0-1.548-1.548l-8.595,8.595-3.5-3.5a1.094,1.094,0,0,0-1.548,1.548Z" transform="translate(-138.941 -180.817)" fill="#02a388"/>
        <path id="Path_49" data-name="Path 49" d="M143.874,191.95a1.113,1.113,0,0,1-.792-.328l-4.279-4.279a1.12,1.12,0,1,1,1.584-1.584l3.487,3.487,8.577-8.577a1.12,1.12,0,1,1,1.584,1.584l-9.369,9.369A1.112,1.112,0,0,1,143.874,191.95Zm-4.279-6.467a1.069,1.069,0,0,0-.756,1.824l4.279,4.279a1.069,1.069,0,0,0,1.511,0L154,182.218a1.069,1.069,0,0,0-1.511-1.511l-8.613,8.613-3.523-3.523A1.061,1.061,0,0,0,139.6,185.483Z" transform="translate(-138.477 -180.342)" fill="#02a388"/>
      </g>
    </g>
  </g>
</svg>
