<svg id="Icon_Train" xmlns="http://www.w3.org/2000/svg" width="71.4" height="98.644" viewBox="0 0 71.4 98.644">
  <path id="Path_260" data-name="Path 260" d="M60.5,0H10.917C4.884,0,0,5.344,0,11.94V66.672c0,6.6,4.884,11.94,10.909,11.94H60.491c6.025,0,10.909-5.344,10.909-11.94V11.94C71.408,5.344,66.523,0,60.5,0ZM23.672,5.2c0-1.4.7-2.535,1.556-2.535H46.172c.86,0,1.556,1.134,1.556,2.535V6.737c0,1.4-.7,2.535-1.556,2.535H25.235c-.86,0-1.556-1.134-1.556-2.535V5.2ZM6.552,16.268a4.13,4.13,0,0,1,4.328-3.9H60.535a4.13,4.13,0,0,1,4.328,3.9V37.279a4.13,4.13,0,0,1-4.328,3.9H10.88a4.13,4.13,0,0,1-4.328-3.9V16.268Zm46.691,32.7H18.165a1.1,1.1,0,0,1,0-2.209h35.07a1.1,1.1,0,0,1,.007,2.209Zm1.1,5a1.107,1.107,0,0,1-1.1,1.1H18.165a1.1,1.1,0,0,1,0-2.209h35.07a1.107,1.107,0,0,1,1.1,1.1ZM12.658,73.535a6.44,6.44,0,1,1,6.44-6.44,6.44,6.44,0,0,1-6.44,6.44Zm46.091,0a6.44,6.44,0,1,1,6.44-6.44,6.44,6.44,0,0,1-6.44,6.44Z" fill="#02a388"/>
  <path id="Path_261" data-name="Path 261" d="M88.43,1105.8l1.63,3.469h-26.5L65.2,1105.8H53.4l-9,16.69H57.325l1.49-3.15H94.789l1.482,3.15H109.2l-8.975-16.69Zm-27.777,9.635,1.067-2.268H91.891l1.067,2.268Z" transform="translate(-41.109 -1023.846)" fill="#02a388"/>
</svg>
