<svg id="Group_630" data-name="Group 630" xmlns="http://www.w3.org/2000/svg" width="6.449" height="12" viewBox="0 0 6.449 12">
  <circle id="Ellipse_37" data-name="Ellipse 37" cx="1.152" cy="1.152" r="1.152" transform="translate(1.802)" fill="#02a388"/>
  <path id="Path_70" data-name="Path 70" d="M20.907,16.255a7.987,7.987,0,0,1-2.383-2.164,1.342,1.342,0,0,0-1.943-.018,12.709,12.709,0,0,0-1.7,2,.6.6,0,1,0,1,.671,10.178,10.178,0,0,1,.674-.889c-.01.626.022,1.755.038,2.263a.975.975,0,0,1-.112.484,19.237,19.237,0,0,0-1.422,3.681.633.633,0,1,0,1.214.357,18.129,18.129,0,0,1,1.293-3.376c.029,0,.057,0,.086,0q.537,1.6,1.075,3.206a.637.637,0,0,0,1.208-.4q-.588-1.752-1.174-3.5a3.245,3.245,0,0,1-.085-.415c-.065-.72-.088-1.437-.081-2.155a9.582,9.582,0,0,0,1.837,1.376C21.11,17.764,21.573,16.642,20.907,16.255Z" transform="translate(-14.782 -11.1)" fill="#02a388"/>
</svg>
